<?xml version="1.0" encoding="utf-8"?>
<!-- Generator: Adobe Illustrator 21.1.0, SVG Export Plug-In . SVG Version: 6.00 Build 0)  -->
<svg version="1.1" id="레이어_1" xmlns="http://www.w3.org/2000/svg" xmlns:xlink="http://www.w3.org/1999/xlink" x="0px"
	 y="0px" viewBox="0 0 81 81" style="enable-background:new 0 0 81 81;" xml:space="preserve">
<style type="text/css">
	.st0{fill:#FFFFFF;}
	.st1{fill:#D5D5D5;}
</style>
<g>
	<image style="overflow:visible;" width="81" height="81" xlink:href="622B4D974779FC5F.png" >
	</image>
	<g>
		<circle class="st0" cx="40.6" cy="38.9" r="34"/>
	</g>
</g>
<g>
	<path class="st1" d="M28.4,46.4c-2.9,0-5.2,2.3-5.2,5.2c0,2.9,2.3,5.2,5.2,5.2c2.9,0,5.2-2.3,5.2-5.2
		C33.6,48.7,31.2,46.4,28.4,46.4z M28.4,53.8c-1.2,0-2.2-1-2.2-2.2c0-1.2,1-2.2,2.2-2.2s2.2,1,2.2,2.2
		C30.6,52.8,29.6,53.8,28.4,53.8z"/>
	<path class="st1" d="M48.8,46.4c-2.9,0-5.2,2.3-5.2,5.2c0,2.9,2.3,5.2,5.2,5.2c2.9,0,5.2-2.3,5.2-5.2
		C53.9,48.7,51.6,46.4,48.8,46.4z M48.8,53.8c-1.2,0-2.2-1-2.2-2.2c0-1.2,1-2.2,2.2-2.2s2.2,1,2.2,2.2C51,52.8,50,53.8,48.8,53.8z"
		/>
	<path class="st1" d="M62.5,21.1h-10c-0.8,0-1.5,0.7-1.5,1.5v4H24.7c-0.8,0-1.5,0.7-1.5,1.5v14c0,0,0,0,0,0c0,0.1,0,0.1,0,0.2
		c0,0,0,0.1,0,0.1c0,0,0,0.1,0,0.1c0,0.1,0,0.1,0.1,0.2c0,0,0,0,0,0c0,0,0,0,0,0c0.1,0.1,0.1,0.2,0.2,0.3c0,0,0,0,0,0.1
		c0.1,0.1,0.2,0.2,0.3,0.2c0,0,0.1,0,0.1,0c0.1,0,0.2,0.1,0.3,0.1c0,0,0.1,0,0.1,0c0.1,0,0.2,0,0.4,0c0,0,0,0,0,0c0,0,0,0,0,0h27.7
		c0.8,0,1.5-0.7,1.5-1.5v-14v-4h8.5c0.8,0,1.5-0.7,1.5-1.5C64,21.7,63.3,21.1,62.5,21.1z M46.2,29.5l-20,10.1V29.5H46.2z M30.9,40.6
		l20-10.1v10.1H30.9z"/>
</g>
</svg>
