<?xml version="1.0" encoding="utf-8"?>
<!-- Generator: Adobe Illustrator 21.1.0, SVG Export Plug-In . SVG Version: 6.00 Build 0)  -->
<svg version="1.1" id="레이어_1" xmlns="http://www.w3.org/2000/svg" xmlns:xlink="http://www.w3.org/1999/xlink" x="0px"
	 y="0px" viewBox="0 0 88.6 104" style="enable-background:new 0 0 88.6 104;" xml:space="preserve">
<style type="text/css">
	.st0{fill:#9A9A9A;}
</style>
<g>
	<path class="st0" d="M70.1,42.7L49.6,30.9l20.5-11.8c0.8-0.5,1.3-1.4,1.3-2.3c0-1-0.5-1.8-1.3-2.3L45.6,0.4c-0.8-0.5-1.8-0.5-2.7,0
		L18.5,14.5c-0.8,0.5-1.3,1.4-1.3,2.3V45c0,1,0.5,1.8,1.3,2.3L43,61.4c0.4,0.2,0.9,0.4,1.3,0.4c0.5,0,0.9-0.1,1.3-0.4l24.4-14.1
		c0.8-0.5,1.3-1.4,1.3-2.3C71.4,44,70.9,43.1,70.1,42.7z M22.5,18.3L44.3,5.8l19.1,11L22.5,40.3V18.3z M44.3,56L25.2,45l19-11
		l19.2,11L44.3,56z"/>
	<g>
		<path class="st0" d="M22.6,92.7c-1.8-1.1-4.2-1.6-7.4-1.6c-3.1,0-5.6,0.5-7.4,1.6c-1.8,1.1-2.7,2.7-2.7,4.8c0,2.2,0.9,3.8,2.7,4.8
			c1.8,1.1,4.2,1.6,7.4,1.6c3.1,0,5.6-0.5,7.4-1.6c1.8-1.1,2.7-2.7,2.7-4.8C25.2,95.4,24.3,93.8,22.6,92.7z M19.7,99.8
			c-0.9,0.6-2.4,0.8-4.5,0.8c-2.1,0-3.6-0.3-4.5-0.8c-0.9-0.6-1.3-1.3-1.3-2.2c0-0.9,0.4-1.6,1.3-2.2c0.9-0.6,2.4-0.8,4.5-0.8
			c2.1,0,3.6,0.3,4.5,0.8c0.9,0.6,1.3,1.3,1.3,2.2C21,98.5,20.6,99.2,19.7,99.8z"/>
		<path class="st0" d="M15.9,80.5c-0.2,0.4-0.4,0.8-0.4,1.3c0,0.5,0.1,0.9,0.4,1.3c0.2,0.4,0.6,0.5,1.1,0.5h3.9v5.5
			c0,0.6,0.2,1.1,0.6,1.4c0.4,0.3,0.9,0.4,1.5,0.4c0.5,0,1-0.1,1.4-0.4c0.4-0.3,0.6-0.7,0.6-1.4V74.4c0-0.6-0.2-1.1-0.6-1.4
			c-0.4-0.3-0.9-0.4-1.4-0.4c-0.6,0-1,0.1-1.5,0.4c-0.4,0.3-0.6,0.7-0.6,1.4V80H17C16.5,80,16.1,80.1,15.9,80.5z"/>
		<path class="st0" d="M8.5,85.7c0.3-0.4,0.5-0.8,0.6-1.2h0c0.1,0.3,0.3,0.6,0.6,1c0.3,0.4,0.8,0.9,1.6,1.5c0.7,0.5,1.3,1,1.8,1.4
			c0.6,0.4,1,0.8,1.4,1c0.3,0.2,0.5,0.3,0.8,0.3c0.3,0,0.5,0,0.7,0c0.2-0.1,0.4-0.2,0.6-0.3c0.2-0.1,0.3-0.3,0.5-0.5
			c0.3-0.4,0.5-0.9,0.4-1.3c0-0.5-0.3-0.9-0.7-1.2c-0.4-0.3-1-0.7-1.6-1.2c-0.6-0.5-1.3-1-2-1.6c-0.7-0.6-1.2-1.2-1.5-1.9
			c-0.3-0.7-0.5-1.5-0.5-2.6v-1.2h4.5c0.5,0,0.9-0.2,1.1-0.5c0.2-0.4,0.4-0.8,0.4-1.3c0-0.5-0.1-0.9-0.4-1.3
			c-0.2-0.4-0.6-0.5-1.1-0.5H2.1c-0.5,0-0.9,0.2-1.1,0.5c-0.2,0.4-0.4,0.8-0.4,1.3c0,0.5,0.1,0.9,0.4,1.3c0.2,0.4,0.6,0.5,1.1,0.5
			h4.9v1.3c0,1-0.2,1.9-0.5,2.6c-0.3,0.7-0.8,1.3-1.5,1.9c-0.7,0.6-1.4,1.2-2.1,1.7c-0.7,0.5-1.4,1-2.1,1.5C0.3,87.2,0,87.7,0,88.2
			c0,0.5,0.1,0.9,0.4,1.3c0.2,0.4,0.6,0.6,1.1,0.8c0.5,0.2,1,0.1,1.5-0.2c0.6-0.4,1.3-0.9,1.9-1.4c0.6-0.5,1.2-1,1.9-1.5
			C7.6,86.6,8.1,86.1,8.5,85.7z"/>
		<path class="st0" d="M36.1,83.8c0.9,0.5,2,0.9,3.3,1.1c1.3,0.2,2.7,0.3,4.3,0.3c1.6,0,3.1-0.1,4.3-0.3c1.3-0.2,2.4-0.6,3.3-1.1
			c0.9-0.5,1.6-1.1,2.1-1.9c0.5-0.7,0.7-1.6,0.7-2.7c0-1-0.2-1.9-0.7-2.7c-0.5-0.8-1.2-1.4-2.1-1.9c-0.9-0.5-2-0.9-3.3-1.1
			c-1.3-0.2-2.7-0.3-4.3-0.3c-1.6,0-3.1,0.1-4.3,0.3c-1.3,0.2-2.4,0.6-3.3,1.1c-0.9,0.5-1.6,1.1-2.1,1.9c-0.5,0.8-0.7,1.6-0.7,2.7
			c0,1,0.2,1.9,0.7,2.7C34.6,82.6,35.2,83.3,36.1,83.8z M39,77.4c1-0.5,2.5-0.7,4.7-0.7c2.2,0,3.8,0.2,4.7,0.7
			c1,0.5,1.4,1.1,1.4,1.9c0,0.8-0.5,1.4-1.4,1.9c-1,0.5-2.5,0.7-4.7,0.7c-2.2,0-3.8-0.2-4.7-0.7c-1-0.5-1.4-1.1-1.4-1.9
			C37.6,78.4,38.1,77.8,39,77.4z"/>
		<path class="st0" d="M56.3,86.9H31.2c-0.5,0-0.9,0.2-1.1,0.5c-0.2,0.3-0.3,0.8-0.3,1.2c0,0.5,0.1,0.9,0.3,1.2
			c0.2,0.3,0.6,0.5,1.1,0.5h6.4v3h-3.2c-0.5,0-0.9,0.2-1.1,0.5c-0.2,0.3-0.3,0.8-0.3,1.2c0,0.5,0.1,0.9,0.3,1.2
			c0.2,0.3,0.6,0.5,1.1,0.5h14.8c0.5,0,0.8,0.3,0.8,0.8v4.5c0,0.6,0.2,1.1,0.6,1.4c0.4,0.3,0.9,0.4,1.5,0.4c0.6,0,1-0.1,1.5-0.4
			c0.4-0.3,0.6-0.7,0.6-1.4v-6c0-1-0.2-1.8-0.6-2.2c-0.4-0.4-1.1-0.6-2.2-0.6h-1.5v-3h6.4c0.5,0,0.9-0.2,1.1-0.5
			c0.2-0.3,0.3-0.7,0.3-1.2c0-0.5-0.1-0.9-0.3-1.2C57.2,87.1,56.8,86.9,56.3,86.9z M41.6,93.4v-3h4.2v3H41.6z"/>
		<path class="st0" d="M88.2,80.1c-0.2-0.4-0.6-0.5-1.2-0.5h-3.1v-5.2c0-0.6-0.2-1.1-0.6-1.4c-0.4-0.3-0.9-0.4-1.5-0.4
			c-0.6,0-1,0.1-1.5,0.4c-0.4,0.3-0.6,0.7-0.6,1.4V89c0,0.6,0.2,1.1,0.6,1.4c0.4,0.3,0.9,0.4,1.5,0.4c0.6,0,1-0.1,1.5-0.4
			c0.4-0.3,0.6-0.7,0.6-1.4v-5.7h3.1c0.5,0,0.9-0.2,1.2-0.5c0.2-0.4,0.4-0.8,0.4-1.3C88.6,80.9,88.5,80.5,88.2,80.1z"/>
		<path class="st0" d="M81.1,92H65.2c-0.5,0-0.9,0.2-1.1,0.5c-0.2,0.4-0.4,0.8-0.4,1.3c0,0.5,0.1,0.9,0.4,1.3
			c0.2,0.4,0.6,0.5,1.1,0.5h13.7c0.5,0,0.8,0.3,0.8,0.8v5.7c0,0.6,0.2,1.1,0.6,1.4c0.4,0.3,0.9,0.4,1.5,0.4c0.6,0,1-0.1,1.5-0.4
			c0.4-0.3,0.6-0.7,0.6-1.4v-7.3c0-1-0.2-1.8-0.6-2.2C82.9,92.2,82.2,92,81.1,92z"/>
		<path class="st0" d="M72.9,85c0.9-0.8,1.4-1.6,1.7-2.4c0.3-0.8,0.4-1.8,0.4-3v-2.5c0-1-0.2-1.8-0.6-2.2c-0.4-0.4-1.1-0.6-2.2-0.6
			h-9.9c-0.5,0-0.9,0.2-1.1,0.5c-0.2,0.4-0.4,0.8-0.4,1.3c0,0.5,0.1,0.9,0.4,1.3c0.2,0.4,0.6,0.5,1.1,0.5h7.8c0.5,0,0.8,0.3,0.8,0.8
			v0.8c0,0.6-0.1,1.2-0.2,1.7c-0.1,0.5-0.5,1-1.1,1.5c-0.6,0.5-1.6,1.1-2.8,1.8c-1.3,0.7-3,1.5-5.2,2.5c-0.3,0.1-0.5,0.3-0.6,0.5
			c-0.1,0.2-0.2,0.4-0.3,0.6c0,0.2,0,0.5,0,0.7c0,0.2,0.1,0.5,0.2,0.7c0.2,0.4,0.5,0.8,1,1c0.5,0.2,1,0.2,1.5,0c2.5-1.2,4.5-2.2,6-3
			C70.8,86.6,72,85.8,72.9,85z"/>
	</g>
</g>
</svg>
