<?xml version="1.0" encoding="utf-8"?>
<!-- Generator: Adobe Illustrator 21.1.0, SVG Export Plug-In . SVG Version: 6.00 Build 0)  -->
<svg version="1.1" id="레이어_1" xmlns="http://www.w3.org/2000/svg" xmlns:xlink="http://www.w3.org/1999/xlink" x="0px"
	 y="0px" viewBox="0 0 338.1 132" style="enable-background:new 0 0 338.1 132;" xml:space="preserve">
<style type="text/css">
	.st0{fill:#FFFFFF;}
</style>
<g>
	<g>
		<path class="st0" d="M182.8,48.7c-0.5,0.8-0.8,1.7-0.8,2.8c0,1,0.3,1.9,0.8,2.7c0.5,0.8,1.3,1.1,2.4,1.1h8.3v11.8
			c0,1.3,0.5,2.3,1.4,2.9c0.9,0.6,2,0.9,3.2,0.9c1.1,0,2.2-0.3,3.1-0.9c0.9-0.6,1.4-1.6,1.4-2.9V35.7c0-1.3-0.5-2.3-1.4-2.9
			c-0.9-0.6-2-0.9-3.1-0.9c-1.2,0-2.2,0.3-3.2,0.9c-0.9,0.6-1.4,1.6-1.4,2.9v11.8h-8.3C184.1,47.6,183.3,47.9,182.8,48.7z"/>
		<path class="st0" d="M166.9,59.8c0.7-0.9,1.2-1.7,1.3-2.5h0.1c0.2,0.7,0.6,1.4,1.2,2.1c0.6,0.8,1.8,1.8,3.5,3.2
			c1.4,1.1,2.7,2.2,3.9,3.1c1.2,0.9,2.2,1.6,2.9,2.2c0.6,0.4,1.1,0.6,1.7,0.7c0.5,0.1,1.1,0,1.5-0.1c0.5-0.1,0.9-0.4,1.3-0.7
			c0.4-0.3,0.7-0.6,1-1c0.7-0.9,1-1.8,0.9-2.8c0-1-0.6-1.9-1.6-2.6c-0.9-0.7-2.1-1.6-3.4-2.6c-1.3-1-2.8-2.2-4.4-3.4
			c-1.5-1.3-2.6-2.6-3.3-4.1c-0.7-1.5-1-3.3-1-5.5v-2.5h9.7c1.1,0,1.9-0.4,2.4-1.1c0.5-0.8,0.8-1.7,0.8-2.7c0-1-0.3-1.9-0.8-2.7
			c-0.5-0.8-1.3-1.1-2.4-1.1h-29.2c-1.1,0-1.9,0.4-2.4,1.1c-0.5,0.8-0.8,1.7-0.8,2.7c0,1,0.3,1.9,0.8,2.7c0.5,0.8,1.3,1.1,2.4,1.1
			h10.4v2.8c0,2.2-0.3,4-1,5.5c-0.7,1.5-1.8,2.8-3.3,4.1c-1.6,1.3-3.1,2.5-4.5,3.5c-1.4,1.1-2.9,2.2-4.4,3.3
			c-1.1,0.8-1.6,1.7-1.6,2.8c0,1.1,0.3,2,0.9,2.9c0.5,0.8,1.3,1.3,2.3,1.7c1,0.4,2.1,0.2,3.1-0.5c1.4-0.9,2.7-1.9,4-2.9
			c1.3-1,2.7-2.1,4.1-3.2C165,61.7,166.2,60.6,166.9,59.8z"/>
		<path class="st0" d="M197,74.9c-3.8-2.3-9-3.4-15.7-3.4c-6.7,0-11.9,1.1-15.7,3.4c-3.8,2.3-5.7,5.7-5.7,10.3
			c0,4.6,1.9,8.1,5.7,10.4c3.8,2.3,9,3.4,15.7,3.4c6.7,0,11.9-1.1,15.7-3.4c3.8-2.3,5.7-5.7,5.7-10.4
			C202.7,80.6,200.8,77.1,197,74.9z M190.9,89.9c-1.9,1.2-5.1,1.8-9.5,1.8c-4.5,0-7.7-0.6-9.6-1.8c-1.9-1.2-2.8-2.8-2.8-4.7
			c0-1.9,0.9-3.5,2.8-4.7c1.9-1.2,5.1-1.8,9.6-1.8c4.4,0,7.6,0.6,9.5,1.8c1.9,1.2,2.9,2.8,2.9,4.7C193.7,87.1,192.8,88.7,190.9,89.9
			z"/>
		<path class="st0" d="M226.1,55.7c1.9,1.1,4.2,1.8,7,2.3c2.7,0.5,5.8,0.7,9.3,0.7c3.5,0,6.6-0.2,9.3-0.7c2.7-0.5,5.1-1.3,7-2.3
			c1.9-1.1,3.4-2.4,4.4-4c1-1.6,1.5-3.5,1.5-5.7c0-2.2-0.5-4.1-1.5-5.7c-1-1.6-2.5-2.9-4.4-4c-1.9-1.1-4.2-1.8-7-2.3
			c-2.7-0.5-5.8-0.7-9.3-0.7c-3.5,0-6.6,0.2-9.3,0.7c-2.7,0.5-5.1,1.3-7,2.3c-1.9,1.1-3.4,2.4-4.4,4c-1,1.6-1.5,3.5-1.5,5.7
			c0,2.2,0.5,4.1,1.5,5.7C222.7,53.3,224.1,54.6,226.1,55.7z M232.2,42c2-1,5.4-1.5,10.1-1.5c4.7,0,8.1,0.5,10.1,1.5
			c2,1,3.1,2.3,3.1,4c0,1.7-1,3-3.1,4c-2,1-5.4,1.5-10.1,1.5c-4.7,0-8.1-0.5-10.1-1.5c-2-1-3.1-2.3-3.1-4
			C229.1,44.3,230.2,43,232.2,42z"/>
		<path class="st0" d="M269.2,62.5h-53.8c-1.1,0-1.9,0.4-2.4,1.1c-0.5,0.7-0.7,1.6-0.7,2.7c0,1,0.2,1.9,0.7,2.6
			c0.5,0.7,1.3,1.1,2.4,1.1h13.7v6.4h-6.9c-1.1,0-1.9,0.4-2.4,1.1c-0.5,0.7-0.7,1.6-0.7,2.7c0,1,0.2,1.9,0.7,2.7
			c0.5,0.7,1.3,1.1,2.4,1.1H254c1.1,0,1.6,0.5,1.6,1.6V95c0,1.3,0.5,2.3,1.4,2.9c0.9,0.6,2,0.9,3.2,0.9c1.2,0,2.2-0.3,3.2-0.9
			c0.9-0.6,1.4-1.6,1.4-2.9V82.2c0-2.2-0.4-3.8-1.3-4.6c-0.9-0.9-2.4-1.3-4.7-1.3h-3.1v-6.4h13.7c1.1,0,1.9-0.4,2.4-1.1
			c0.5-0.7,0.7-1.6,0.7-2.6c0-1-0.2-1.9-0.7-2.7C271.1,62.8,270.3,62.5,269.2,62.5z M237.8,76.3v-6.4h9.1v6.4H237.8z"/>
		<path class="st0" d="M337.3,47.9c-0.5-0.8-1.3-1.1-2.5-1.1h-6.7V35.7c0-1.3-0.5-2.3-1.4-2.9c-0.9-0.6-2-0.9-3.2-0.9
			c-1.2,0-2.2,0.3-3.2,0.9c-0.9,0.6-1.4,1.6-1.4,2.9v31.1c0,1.3,0.5,2.3,1.4,2.9c0.9,0.6,2,0.9,3.2,0.9c1.2,0,2.2-0.3,3.2-0.9
			c0.9-0.6,1.4-1.6,1.4-2.9V54.7h6.7c1.1,0,2-0.4,2.5-1.2c0.5-0.8,0.8-1.7,0.8-2.8C338.1,49.6,337.9,48.7,337.3,47.9z"/>
		<path class="st0" d="M304.6,58.4c1.8-1.7,3.1-3.4,3.7-5.2c0.6-1.8,1-3.9,1-6.5v-5.4c0-2.2-0.4-3.8-1.3-4.6
			c-0.9-0.9-2.4-1.3-4.7-1.3h-21.2c-1.1,0-1.9,0.4-2.4,1.1c-0.5,0.8-0.8,1.7-0.8,2.8c0,1,0.3,1.9,0.8,2.7c0.5,0.8,1.3,1.1,2.4,1.1
			h16.6c1.1,0,1.6,0.5,1.6,1.6v1.6c0,1.4-0.2,2.6-0.5,3.6c-0.3,1-1.1,2.1-2.4,3.2c-1.3,1.1-3.3,2.4-6,3.8c-2.7,1.4-6.4,3.3-11.1,5.4
			c-0.6,0.3-1.1,0.6-1.4,1.1c-0.3,0.4-0.5,0.9-0.6,1.4c-0.1,0.5-0.1,1,0,1.5c0.1,0.5,0.2,1,0.5,1.4c0.4,0.9,1.1,1.7,2.1,2.2
			c1,0.5,2.1,0.5,3.2,0c5.3-2.5,9.6-4.7,12.9-6.5C300.2,61.8,302.8,60.1,304.6,58.4z"/>
		<path class="st0" d="M322.2,73.3h-33.9c-1.1,0-1.9,0.4-2.4,1.1c-0.5,0.8-0.8,1.7-0.8,2.7c0,1,0.3,1.9,0.8,2.7
			c0.5,0.8,1.3,1.1,2.4,1.1h29.2c1.1,0,1.6,0.5,1.6,1.6v12.1c0,1.3,0.5,2.3,1.4,2.9c0.9,0.6,2,0.9,3.2,0.9c1.2,0,2.2-0.3,3.2-0.9
			c0.9-0.6,1.4-1.6,1.4-2.9V79.2c0-2.2-0.4-3.8-1.3-4.6C326,73.8,324.4,73.3,322.2,73.3z"/>
	</g>
	<path class="st0" d="M113,91.2L69.2,66.1L113,40.8c1.8-1,2.9-2.9,2.9-5c0-2-1.1-3.9-2.9-5L60.8,0.8c-1.8-1-4-1-5.7,0L2.9,30.9
		c-1.8,1-2.9,2.9-2.9,5v60.3c0,2,1.1,3.9,2.9,5l52.2,30.1c0.9,0.5,1.9,0.8,2.9,0.8c1,0,2-0.3,2.9-0.8l52.2-30.1c1.8-1,2.9-2.9,2.9-5
		C115.8,94.1,114.7,92.2,113,91.2z M11.4,39.2l46.5-26.8l40.8,23.5L11.4,86.2V39.2z M57.9,119.7L17.2,96.1l40.5-23.4l40.9,23.4
		L57.9,119.7z"/>
</g>
</svg>
