<?xml version="1.0" encoding="utf-8"?>
<!-- Generator: Adobe Illustrator 21.1.0, SVG Export Plug-In . SVG Version: 6.00 Build 0)  -->
<svg version="1.1" id="레이어_1" xmlns="http://www.w3.org/2000/svg" xmlns:xlink="http://www.w3.org/1999/xlink" x="0px"
	 y="0px" viewBox="0 0 29 28.4" style="enable-background:new 0 0 29 28.4;" xml:space="preserve">
<style type="text/css">
	.st0{fill:#E3E3E3;}
</style>
<g>
	<g>
		<path class="st0" d="M0.5,0h1.6l1.3,3.5c0.1,0.2,0.2,0.5,0.2,0.7c0.1,0.2,0.1,0.5,0.2,0.7h0.1C4,4.6,4,4.4,4.1,4.2
			c0.1-0.2,0.1-0.5,0.2-0.7L5.6,0h1.6v7.4H5.8V4.3c0-0.2,0-0.4,0-0.6s0-0.4,0-0.6c0-0.2,0-0.4,0.1-0.6C6,2.2,6,2.1,6,1.9h0L5.4,3.6
			L4.3,6.7H3.4L2.3,3.6L1.7,1.9h0c0,0.2,0,0.4,0.1,0.6c0,0.2,0,0.4,0.1,0.6c0,0.2,0,0.4,0.1,0.6c0,0.2,0,0.4,0,0.6v3.1H0.5V0z"/>
		<path class="st0" d="M9,0h4.5v1.2h-3.1v1.7h2.6v1.2h-2.6v2h3.2v1.2H9V0z"/>
		<path class="st0" d="M15.2,0h1.5l2.1,3.9l0.7,1.6h0c0-0.4-0.1-0.8-0.1-1.3s-0.1-0.9-0.1-1.3V0h1.4v7.4h-1.5l-2.1-4l-0.7-1.6h-0.1
			c0,0.4,0.1,0.8,0.1,1.3c0,0.4,0.1,0.9,0.1,1.3v3h-1.4V0z"/>
		<path class="st0" d="M25.5,7.5c-0.5,0-0.9-0.1-1.2-0.2c-0.4-0.1-0.7-0.3-0.9-0.6c-0.2-0.3-0.4-0.6-0.6-1.1s-0.2-1-0.2-1.6V0h1.5
			v4.2c0,0.4,0,0.7,0.1,1c0.1,0.3,0.2,0.5,0.3,0.6c0.1,0.2,0.3,0.3,0.4,0.3c0.2,0.1,0.4,0.1,0.6,0.1s0.4,0,0.6-0.1
			c0.2-0.1,0.3-0.2,0.5-0.3c0.1-0.2,0.2-0.4,0.3-0.6c0.1-0.3,0.1-0.6,0.1-1V0h1.4v4.1c0,0.6-0.1,1.1-0.2,1.6s-0.3,0.8-0.6,1.1
			c-0.2,0.3-0.5,0.5-0.9,0.6C26.4,7.5,26,7.5,25.5,7.5z"/>
	</g>
	<path class="st0" d="M28,14.4H14c-0.6,0-1-0.4-1-1s0.4-1,1-1h14c0.6,0,1,0.4,1,1S28.5,14.4,28,14.4z"/>
	<path class="st0" d="M28,21.4H1c-0.6,0-1-0.4-1-1s0.4-1,1-1h27c0.6,0,1,0.4,1,1S28.5,21.4,28,21.4z"/>
	<path class="st0" d="M28,28.4H1c-0.6,0-1-0.4-1-1s0.4-1,1-1h27c0.6,0,1,0.4,1,1S28.5,28.4,28,28.4z"/>
</g>
</svg>
